<svg width="1208" height="471" viewBox="0 0 1208 471" fill="none" xmlns="http://www.w3.org/2000/svg">
<rect width="1208" height="471" rx="24" fill="#F9F9FC"/>
<mask id="mask0_82_38" style="mask-type:alpha" maskUnits="userSpaceOnUse" x="867" y="188" width="341" height="283">
<path d="M867 188H1208V447C1208 460.255 1197.25 471 1184 471H867V188Z" fill="#F1F0FB"/>
</mask>
<g mask="url(#mask0_82_38)">
<circle cx="1051.5" cy="372.5" r="184.5" fill="#F1F0FB"/>
</g>
<circle cx="135.5" cy="349.5" r="36.5" fill="#F1F0FB"/>
<circle cx="985.5" cy="74.5" r="20.5" fill="#F1F0FB"/>
<circle cx="549.5" cy="71.5" r="12.5" fill="#F1F0FB"/>
<circle cx="483.5" cy="243.5" r="19.5" fill="#F1F0FB"/>
<path d="M358.872 163V128.1H365.922V163H358.872ZM380.723 135.3V139.45C382.49 136.417 385.356 134.9 389.323 134.9C392.49 134.9 395.073 135.95 397.073 138.05C399.073 140.117 400.073 143 400.073 146.7V163H393.073V147.7C393.073 145.533 392.523 143.883 391.423 142.75C390.323 141.583 388.823 141 386.923 141C385.023 141 383.506 141.583 382.373 142.75C381.273 143.883 380.723 145.533 380.723 147.7V163H373.673V135.3H380.723ZM418.315 157.1H421.665V163H417.215C414.382 163 412.199 162.35 410.665 161.05C409.132 159.75 408.365 157.6 408.365 154.6V141.05H405.415V135.3H408.365V128.45H415.415V135.3H421.615V141.05H415.415V154.6C415.415 155.5 415.632 156.15 416.065 156.55C416.499 156.917 417.249 157.1 418.315 157.1ZM439.096 163.4C435.062 163.4 431.779 162.1 429.246 159.5C426.712 156.867 425.446 153.4 425.446 149.1C425.446 144.8 426.712 141.367 429.246 138.8C431.812 136.2 435.112 134.9 439.146 134.9C443.212 134.9 446.546 136.167 449.146 138.7C451.746 141.2 453.046 144.55 453.046 148.75C453.046 149.717 452.979 150.617 452.846 151.45H432.646C432.812 153.25 433.479 154.7 434.646 155.8C435.812 156.9 437.296 157.45 439.096 157.45C441.529 157.45 443.329 156.45 444.496 154.45H452.096C451.296 157.083 449.746 159.233 447.446 160.9C445.146 162.567 442.362 163.4 439.096 163.4ZM445.746 146.9C445.646 145.067 444.962 143.6 443.696 142.5C442.462 141.4 440.962 140.85 439.196 140.85C437.429 140.85 435.946 141.4 434.746 142.5C433.579 143.6 432.879 145.067 432.646 146.9H445.746ZM465.897 135.3V140.2C467.763 136.667 470.463 134.9 473.997 134.9V142.1H472.247C470.147 142.1 468.563 142.633 467.497 143.7C466.43 144.733 465.897 146.533 465.897 149.1V163H458.847V135.3H465.897ZM490.963 163.4C486.929 163.4 483.646 162.1 481.113 159.5C478.579 156.867 477.313 153.4 477.313 149.1C477.313 144.8 478.579 141.367 481.113 138.8C483.679 136.2 486.979 134.9 491.013 134.9C495.079 134.9 498.413 136.167 501.013 138.7C503.613 141.2 504.913 144.55 504.913 148.75C504.913 149.717 504.846 150.617 504.713 151.45H484.513C484.679 153.25 485.346 154.7 486.513 155.8C487.679 156.9 489.163 157.45 490.963 157.45C493.396 157.45 495.196 156.45 496.363 154.45H503.963C503.163 157.083 501.613 159.233 499.313 160.9C497.013 162.567 494.229 163.4 490.963 163.4ZM497.613 146.9C497.513 145.067 496.829 143.6 495.563 142.5C494.329 141.4 492.829 140.85 491.063 140.85C489.296 140.85 487.813 141.4 486.613 142.5C485.446 143.6 484.746 145.067 484.513 146.9H497.613ZM509.164 143.4C509.164 141 510.181 138.983 512.214 137.35C514.247 135.717 516.947 134.9 520.314 134.9C523.681 134.9 526.381 135.717 528.414 137.35C530.447 138.95 531.531 141.133 531.664 143.9H524.464C524.264 141.567 522.831 140.4 520.164 140.4C518.831 140.4 517.797 140.667 517.064 141.2C516.331 141.733 515.964 142.467 515.964 143.4C515.964 144.333 516.514 145.067 517.614 145.6C518.714 146.133 520.047 146.55 521.614 146.85C523.181 147.15 524.731 147.533 526.264 148C527.831 148.433 529.164 149.233 530.264 150.4C531.364 151.533 531.914 153.05 531.914 154.95C531.914 157.45 530.847 159.483 528.714 161.05C526.614 162.617 523.914 163.4 520.614 163.4C517.347 163.4 514.664 162.633 512.564 161.1C510.464 159.533 509.314 157.3 509.114 154.4H516.314C516.581 156.733 518.064 157.9 520.764 157.9C522.064 157.9 523.114 157.617 523.914 157.05C524.714 156.45 525.114 155.683 525.114 154.75C525.114 153.783 524.564 153.033 523.464 152.5C522.364 151.933 521.031 151.5 519.464 151.2C517.897 150.9 516.331 150.533 514.764 150.1C513.231 149.667 511.914 148.9 510.814 147.8C509.714 146.667 509.164 145.2 509.164 143.4ZM548.911 157.1H552.261V163H547.811C544.978 163 542.794 162.35 541.261 161.05C539.728 159.75 538.961 157.6 538.961 154.6V141.05H536.011V135.3H538.961V128.45H546.011V135.3H552.211V141.05H546.011V154.6C546.011 155.5 546.228 156.15 546.661 156.55C547.094 156.917 547.844 157.1 548.911 157.1ZM569.691 163.4C565.658 163.4 562.375 162.1 559.841 159.5C557.308 156.867 556.041 153.4 556.041 149.1C556.041 144.8 557.308 141.367 559.841 138.8C562.408 136.2 565.708 134.9 569.741 134.9C573.808 134.9 577.141 136.167 579.741 138.7C582.341 141.2 583.641 144.55 583.641 148.75C583.641 149.717 583.575 150.617 583.441 151.45H563.241C563.408 153.25 564.075 154.7 565.241 155.8C566.408 156.9 567.891 157.45 569.691 157.45C572.125 157.45 573.925 156.45 575.091 154.45H582.691C581.891 157.083 580.341 159.233 578.041 160.9C575.741 162.567 572.958 163.4 569.691 163.4ZM576.341 146.9C576.241 145.067 575.558 143.6 574.291 142.5C573.058 141.4 571.558 140.85 569.791 140.85C568.025 140.85 566.541 141.4 565.341 142.5C564.175 143.6 563.475 145.067 563.241 146.9H576.341ZM607.092 155.15C608.559 153.683 609.292 151.683 609.292 149.15C609.292 146.617 608.559 144.633 607.092 143.2C605.626 141.733 603.909 141 601.942 141C599.976 141 598.259 141.717 596.792 143.15C595.359 144.583 594.642 146.567 594.642 149.1C594.642 151.633 595.376 153.633 596.842 155.1C598.309 156.567 600.009 157.3 601.942 157.3C603.909 157.3 605.626 156.583 607.092 155.15ZM591.192 159.4C588.726 156.7 587.492 153.267 587.492 149.1C587.492 144.933 588.726 141.533 591.192 138.9C593.659 136.233 596.792 134.9 600.592 134.9C604.392 134.9 607.292 136.467 609.292 139.6V126H616.292V163H609.292V158.35C607.192 161.717 604.276 163.4 600.542 163.4C596.809 163.4 593.692 162.067 591.192 159.4ZM678.309 128.1H685.859L675.759 163H667.759L661.009 138.65L654.059 163H646.059L636.159 128.1H643.659L650.359 155.05L657.409 128.1H665.359L672.009 154.8L678.309 128.1ZM702.785 157.45C704.752 157.45 706.435 156.733 707.835 155.3C709.269 153.833 709.985 151.783 709.985 149.15C709.985 146.483 709.285 144.433 707.885 143C706.485 141.567 704.785 140.85 702.785 140.85C700.819 140.85 699.152 141.567 697.785 143C696.419 144.433 695.735 146.483 695.735 149.15C695.735 151.817 696.419 153.867 697.785 155.3C699.152 156.733 700.819 157.45 702.785 157.45ZM692.635 159.45C689.935 156.817 688.585 153.367 688.585 149.1C688.585 144.833 689.952 141.4 692.685 138.8C695.419 136.2 698.802 134.9 702.835 134.9C706.902 134.9 710.302 136.2 713.035 138.8C715.769 141.4 717.135 144.833 717.135 149.1C717.135 153.367 715.752 156.817 712.985 159.45C710.252 162.083 706.852 163.4 702.785 163.4C698.719 163.4 695.335 162.083 692.635 159.45ZM730.012 135.3V140.2C731.879 136.667 734.579 134.9 738.112 134.9V142.1H736.362C734.262 142.1 732.679 142.633 731.612 143.7C730.545 144.733 730.012 146.533 730.012 149.1V163H722.962V135.3H730.012ZM750.428 163H743.378V126H750.428V147.15L759.778 135.3H769.328L757.028 149.3L769.328 163H759.928L750.428 151.45V163ZM781.408 128.25C781.408 129.45 780.992 130.467 780.158 131.3C779.325 132.133 778.308 132.55 777.108 132.55C775.942 132.55 774.942 132.133 774.108 131.3C773.275 130.467 772.858 129.45 772.858 128.25C772.858 127.05 773.275 126.033 774.108 125.2C774.942 124.367 775.942 123.95 777.108 123.95C778.308 123.95 779.325 124.367 780.158 125.2C780.992 126.033 781.408 127.05 781.408 128.25ZM773.608 163V135.3H780.658V163H773.608ZM795.459 135.3V139.45C797.226 136.417 800.093 134.9 804.059 134.9C807.226 134.9 809.809 135.95 811.809 138.05C813.809 140.117 814.809 143 814.809 146.7V163H807.809V147.7C807.809 145.533 807.259 143.883 806.159 142.75C805.059 141.583 803.559 141 801.659 141C799.759 141 798.243 141.583 797.109 142.75C796.009 143.883 795.459 145.533 795.459 147.7V163H788.409V135.3H795.459ZM824.052 159.4C821.585 156.7 820.352 153.267 820.352 149.1C820.352 144.933 821.585 141.533 824.052 138.9C826.518 136.233 829.652 134.9 833.452 134.9C837.252 134.9 840.152 136.467 842.152 139.6V135.3H849.152V163.2C849.152 167.167 847.985 170.4 845.652 172.9C843.318 175.433 840.035 176.7 835.802 176.7C831.602 176.7 828.252 175.817 825.752 174.05C823.285 172.317 821.885 169.833 821.552 166.6H828.452C828.885 167.833 829.718 168.8 830.952 169.5C832.185 170.233 833.735 170.6 835.602 170.6C837.468 170.6 839.018 169.983 840.252 168.75C841.518 167.517 842.152 165.667 842.152 163.2V158.35C840.052 161.717 837.135 163.4 833.402 163.4C829.668 163.4 826.552 162.067 824.052 159.4ZM839.952 155.15C841.418 153.683 842.152 151.683 842.152 149.15C842.152 146.617 841.418 144.633 839.952 143.2C838.485 141.733 836.768 141 834.802 141C832.835 141 831.118 141.717 829.652 143.15C828.218 144.583 827.502 146.567 827.502 149.1C827.502 151.633 828.235 153.633 829.702 155.1C831.168 156.567 832.868 157.3 834.802 157.3C836.768 157.3 838.485 156.583 839.952 155.15ZM333.113 200.1H340.663L330.563 235H322.563L315.813 210.65L308.863 235H300.863L290.963 200.1H298.463L305.163 227.05L312.213 200.1H320.163L326.813 226.8L333.113 200.1ZM353.089 200.25C353.089 201.45 352.672 202.467 351.839 203.3C351.006 204.133 349.989 204.55 348.789 204.55C347.622 204.55 346.622 204.133 345.789 203.3C344.956 202.467 344.539 201.45 344.539 200.25C344.539 199.05 344.956 198.033 345.789 197.2C346.622 196.367 347.622 195.95 348.789 195.95C349.989 195.95 351.006 196.367 351.839 197.2C352.672 198.033 353.089 199.05 353.089 200.25ZM345.289 235V207.3H352.339V235H345.289ZM370.84 229.1H374.19V235H369.74C366.907 235 364.723 234.35 363.19 233.05C361.657 231.75 360.89 229.6 360.89 226.6V213.05H357.94V207.3H360.89V200.45H367.94V207.3H374.14V213.05H367.94V226.6C367.94 227.5 368.157 228.15 368.59 228.55C369.023 228.917 369.773 229.1 370.84 229.1ZM386.97 198V211.45C388.737 208.417 391.603 206.9 395.57 206.9C398.737 206.9 401.32 207.95 403.32 210.05C405.32 212.117 406.32 215 406.32 218.7V235H399.32V219.7C399.32 217.533 398.77 215.883 397.67 214.75C396.57 213.583 395.07 213 393.17 213C391.27 213 389.753 213.583 388.62 214.75C387.52 215.883 386.97 217.533 386.97 219.7V235H379.92V198H386.97ZM436.103 207.3V211.45C437.869 208.417 440.736 206.9 444.703 206.9C446.803 206.9 448.669 207.383 450.303 208.35C451.969 209.317 453.253 210.7 454.153 212.5C455.119 210.767 456.436 209.4 458.103 208.4C459.803 207.4 461.703 206.9 463.803 206.9C467.103 206.9 469.753 207.933 471.753 210C473.786 212.067 474.803 214.967 474.803 218.7V235H467.803V219.7C467.803 217.533 467.253 215.883 466.153 214.75C465.053 213.583 463.553 213 461.653 213C459.753 213 458.236 213.583 457.103 214.75C456.003 215.883 455.453 217.533 455.453 219.7V235H448.453V219.7C448.453 217.533 447.903 215.883 446.803 214.75C445.703 213.583 444.203 213 442.303 213C440.403 213 438.886 213.583 437.753 214.75C436.653 215.883 436.103 217.533 436.103 219.7V235H429.053V207.3H436.103ZM493.981 235.4C489.948 235.4 486.665 234.1 484.131 231.5C481.598 228.867 480.331 225.4 480.331 221.1C480.331 216.8 481.598 213.367 484.131 210.8C486.698 208.2 489.998 206.9 494.031 206.9C498.098 206.9 501.431 208.167 504.031 210.7C506.631 213.2 507.931 216.55 507.931 220.75C507.931 221.717 507.865 222.617 507.731 223.45H487.531C487.698 225.25 488.365 226.7 489.531 227.8C490.698 228.9 492.181 229.45 493.981 229.45C496.415 229.45 498.215 228.45 499.381 226.45H506.981C506.181 229.083 504.631 231.233 502.331 232.9C500.031 234.567 497.248 235.4 493.981 235.4ZM500.631 218.9C500.531 217.067 499.848 215.6 498.581 214.5C497.348 213.4 495.848 212.85 494.081 212.85C492.315 212.85 490.831 213.4 489.631 214.5C488.465 215.6 487.765 217.067 487.531 218.9H500.631ZM520.132 234C519.366 233.233 518.982 232.283 518.982 231.15C518.982 230.017 519.366 229.067 520.132 228.3C520.932 227.533 521.882 227.15 522.982 227.15C524.116 227.15 525.066 227.533 525.832 228.3C526.632 229.067 527.032 230.017 527.032 231.15C527.032 232.283 526.632 233.233 525.832 234C525.066 234.767 524.116 235.15 522.982 235.15C521.882 235.15 520.932 234.767 520.132 234ZM514.632 207.85C514.566 204.75 515.549 202.217 517.582 200.25C519.649 198.283 522.432 197.3 525.932 197.3C529.466 197.3 532.299 198.25 534.432 200.15C536.566 202.05 537.632 204.717 537.632 208.15C537.632 211.55 536.666 214.017 534.732 215.55C532.799 217.083 529.932 217.883 526.132 217.95V223.4H519.532V213.3H522.382C525.249 213.3 527.366 212.933 528.732 212.2C530.132 211.467 530.832 210.033 530.832 207.9C530.832 206.433 530.399 205.267 529.532 204.4C528.699 203.533 527.532 203.1 526.032 203.1C524.566 203.1 523.399 203.533 522.532 204.4C521.699 205.233 521.282 206.383 521.282 207.85H514.632ZM561.254 200.1H568.304V229.65H579.504V235H561.254V200.1ZM596.202 235.4C592.169 235.4 588.885 234.1 586.352 231.5C583.819 228.867 582.552 225.4 582.552 221.1C582.552 216.8 583.819 213.367 586.352 210.8C588.919 208.2 592.219 206.9 596.252 206.9C600.319 206.9 603.652 208.167 606.252 210.7C608.852 213.2 610.152 216.55 610.152 220.75C610.152 221.717 610.085 222.617 609.952 223.45H589.752C589.919 225.25 590.585 226.7 591.752 227.8C592.919 228.9 594.402 229.45 596.202 229.45C598.635 229.45 600.435 228.45 601.602 226.45H609.202C608.402 229.083 606.852 231.233 604.552 232.9C602.252 234.567 599.469 235.4 596.202 235.4ZM602.852 218.9C602.752 217.067 602.069 215.6 600.802 214.5C599.569 213.4 598.069 212.85 596.302 212.85C594.535 212.85 593.052 213.4 591.852 214.5C590.685 215.6 589.985 217.067 589.752 218.9H602.852ZM626.703 229.1H630.053V235H625.603C622.77 235 620.586 234.35 619.053 233.05C617.52 231.75 616.753 229.6 616.753 226.6V213.05H613.803V207.3H616.753V200.45H623.803V207.3H630.003V213.05H623.803V226.6C623.803 227.5 624.02 228.15 624.453 228.55C624.886 228.917 625.636 229.1 626.703 229.1ZM634.533 205.7L633.883 195.05H639.933L639.283 205.7H634.533ZM644.249 215.4C644.249 213 645.265 210.983 647.299 209.35C649.332 207.717 652.032 206.9 655.399 206.9C658.765 206.9 661.465 207.717 663.499 209.35C665.532 210.95 666.615 213.133 666.749 215.9H659.549C659.349 213.567 657.915 212.4 655.249 212.4C653.915 212.4 652.882 212.667 652.149 213.2C651.415 213.733 651.049 214.467 651.049 215.4C651.049 216.333 651.599 217.067 652.699 217.6C653.799 218.133 655.132 218.55 656.699 218.85C658.265 219.15 659.815 219.533 661.349 220C662.915 220.433 664.249 221.233 665.349 222.4C666.449 223.533 666.999 225.05 666.999 226.95C666.999 229.45 665.932 231.483 663.799 233.05C661.699 234.617 658.999 235.4 655.699 235.4C652.432 235.4 649.749 234.633 647.649 233.1C645.549 231.533 644.399 229.3 644.199 226.4H651.399C651.665 228.733 653.149 229.9 655.849 229.9C657.149 229.9 658.199 229.617 658.999 229.05C659.799 228.45 660.199 227.683 660.199 226.75C660.199 225.783 659.649 225.033 658.549 224.5C657.449 223.933 656.115 223.5 654.549 223.2C652.982 222.9 651.415 222.533 649.849 222.1C648.315 221.667 646.999 220.9 645.899 219.8C644.799 218.667 644.249 217.2 644.249 215.4ZM690.336 231.5C687.803 228.9 686.536 225.45 686.536 221.15C686.536 216.85 687.803 213.4 690.336 210.8C692.87 208.2 696.153 206.9 700.186 206.9C703.553 206.9 706.37 207.717 708.636 209.35C710.903 210.983 712.42 213.3 713.186 216.3H705.586C704.686 214 702.886 212.85 700.186 212.85C698.153 212.85 696.553 213.6 695.386 215.1C694.253 216.567 693.686 218.583 693.686 221.15C693.686 223.717 694.253 225.75 695.386 227.25C696.553 228.717 698.153 229.45 700.186 229.45C702.853 229.45 704.653 228.283 705.586 225.95H713.186C712.386 228.85 710.836 231.15 708.536 232.85C706.27 234.55 703.486 235.4 700.186 235.4C696.153 235.4 692.87 234.1 690.336 231.5ZM731.017 229.45C732.983 229.45 734.667 228.733 736.067 227.3C737.5 225.833 738.217 223.783 738.217 221.15C738.217 218.483 737.517 216.433 736.117 215C734.717 213.567 733.017 212.85 731.017 212.85C729.05 212.85 727.383 213.567 726.017 215C724.65 216.433 723.967 218.483 723.967 221.15C723.967 223.817 724.65 225.867 726.017 227.3C727.383 228.733 729.05 229.45 731.017 229.45ZM720.867 231.45C718.167 228.817 716.817 225.367 716.817 221.1C716.817 216.833 718.183 213.4 720.917 210.8C723.65 208.2 727.033 206.9 731.067 206.9C735.133 206.9 738.533 208.2 741.267 210.8C744 213.4 745.367 216.833 745.367 221.1C745.367 225.367 743.983 228.817 741.217 231.45C738.483 234.083 735.083 235.4 731.017 235.4C726.95 235.4 723.567 234.083 720.867 231.45ZM758.243 207.3V211.45C760.01 208.417 762.877 206.9 766.843 206.9C770.01 206.9 772.593 207.95 774.593 210.05C776.593 212.117 777.593 215 777.593 218.7V235H770.593V219.7C770.593 217.533 770.043 215.883 768.943 214.75C767.843 213.583 766.343 213 764.443 213C762.543 213 761.027 213.583 759.893 214.75C758.793 215.883 758.243 217.533 758.243 219.7V235H751.193V207.3H758.243ZM792.136 207.3V211.45C793.903 208.417 796.769 206.9 800.736 206.9C803.903 206.9 806.486 207.95 808.486 210.05C810.486 212.117 811.486 215 811.486 218.7V235H804.486V219.7C804.486 217.533 803.936 215.883 802.836 214.75C801.736 213.583 800.236 213 798.336 213C796.436 213 794.919 213.583 793.786 214.75C792.686 215.883 792.136 217.533 792.136 219.7V235H785.086V207.3H792.136ZM830.679 235.4C826.645 235.4 823.362 234.1 820.829 231.5C818.295 228.867 817.029 225.4 817.029 221.1C817.029 216.8 818.295 213.367 820.829 210.8C823.395 208.2 826.695 206.9 830.729 206.9C834.795 206.9 838.129 208.167 840.729 210.7C843.329 213.2 844.629 216.55 844.629 220.75C844.629 221.717 844.562 222.617 844.429 223.45H824.229C824.395 225.25 825.062 226.7 826.229 227.8C827.395 228.9 828.879 229.45 830.679 229.45C833.112 229.45 834.912 228.45 836.079 226.45H843.679C842.879 229.083 841.329 231.233 839.029 232.9C836.729 234.567 833.945 235.4 830.679 235.4ZM837.329 218.9C837.229 217.067 836.545 215.6 835.279 214.5C834.045 213.4 832.545 212.85 830.779 212.85C829.012 212.85 827.529 213.4 826.329 214.5C825.162 215.6 824.462 217.067 824.229 218.9H837.329ZM852.28 231.5C849.746 228.9 848.48 225.45 848.48 221.15C848.48 216.85 849.746 213.4 852.28 210.8C854.813 208.2 858.096 206.9 862.13 206.9C865.496 206.9 868.313 207.717 870.58 209.35C872.846 210.983 874.363 213.3 875.13 216.3H867.53C866.63 214 864.83 212.85 862.13 212.85C860.096 212.85 858.496 213.6 857.33 215.1C856.196 216.567 855.63 218.583 855.63 221.15C855.63 223.717 856.196 225.75 857.33 227.25C858.496 228.717 860.096 229.45 862.13 229.45C864.796 229.45 866.596 228.283 867.53 225.95H875.13C874.33 228.85 872.78 231.15 870.48 232.85C868.213 234.55 865.43 235.4 862.13 235.4C858.096 235.4 854.813 234.1 852.28 231.5ZM891.41 229.1H894.76V235H890.31C887.477 235 885.293 234.35 883.76 233.05C882.227 231.75 881.46 229.6 881.46 226.6V213.05H878.51V207.3H881.46V200.45H888.51V207.3H894.71V213.05H888.51V226.6C888.51 227.5 888.727 228.15 889.16 228.55C889.593 228.917 890.343 229.1 891.41 229.1ZM911.79 231C911.79 232.133 911.39 233.083 910.59 233.85C909.824 234.617 908.874 235 907.74 235C906.64 235 905.69 234.617 904.89 233.85C904.124 233.083 903.74 232.133 903.74 231C903.74 229.867 904.124 228.917 904.89 228.15C905.69 227.383 906.64 227 907.74 227C908.874 227 909.824 227.383 910.59 228.15C911.39 228.917 911.79 229.867 911.79 231ZM904.64 223.25L903.84 197.45H911.34L910.54 223.25H904.64Z" fill="#333333"/>
</svg>
