<svg width="1144" height="66" viewBox="0 0 1144 66" fill="none" xmlns="http://www.w3.org/2000/svg">
<path d="M65.9338 19.303H71.4297V41.5888H65.9338V19.303ZM73.6212 33.2059C73.6212 27.6859 77.0454 24.3773 82.1818 24.3773C87.3182 24.3773 90.7424 27.6859 90.7424 33.2059C90.7424 38.7259 87.438 42.0688 82.1818 42.0688C76.9256 42.0688 73.6212 38.8459 73.6212 33.2059ZM85.2979 33.2059C85.2979 30.1716 84.1165 28.3888 82.2332 28.3888C80.3498 28.3888 79.1856 30.103 79.1856 33.2059C79.1856 36.3088 80.3498 38.0059 82.2332 38.0059C84.1165 38.0059 85.3321 36.3088 85.3321 33.223L85.2979 33.2059ZM92.9339 42.7373H98.2415C98.4831 43.3094 98.9051 43.7868 99.4431 44.0962C99.981 44.4058 100.605 44.5306 101.221 44.4516C103.327 44.4516 104.422 43.3202 104.422 41.6402V38.5545H104.439C103.986 39.5153 103.252 40.3161 102.336 40.8516C101.419 41.3872 100.362 41.6321 99.303 41.5545C95.2795 41.5545 92.6086 38.4859 92.6086 33.2059C92.6086 27.9259 95.1597 24.6345 99.4571 24.6345C100.543 24.5764 101.62 24.8566 102.54 25.4369C103.46 26.0172 104.177 26.8689 104.593 27.8745H104.439V24.7716H109.884V41.4688C109.884 45.4973 106.323 48.0173 101.084 48.0173C96.3239 48.0002 93.2764 45.823 92.9682 42.7545L92.9339 42.7373ZM104.439 33.2059C104.439 30.5145 103.207 28.8173 101.255 28.8173C99.303 28.8173 98.1045 30.5316 98.1045 33.2059C98.1045 35.8802 99.2859 37.4573 101.255 37.4573C103.224 37.4573 104.439 36.0002 104.439 33.2059ZM112.058 33.2059C112.058 27.6859 115.483 24.3773 120.619 24.3773C125.755 24.3773 129.18 27.6859 129.18 33.2059C129.18 38.7259 125.858 42.0688 120.619 42.0688C115.38 42.0688 112.093 38.8459 112.093 33.2059H112.058ZM123.735 33.2059C123.735 30.1716 122.537 28.3888 120.67 28.3888C118.804 28.3888 117.623 30.103 117.623 33.2059C117.623 36.3088 118.787 38.0059 120.67 38.0059C122.554 38.0059 123.769 36.3088 123.769 33.223L123.735 33.2059ZM131.405 20.7088C131.381 20.1482 131.525 19.5933 131.819 19.1155C132.113 18.6376 132.542 18.2587 133.053 18.0274C133.564 17.796 134.132 17.723 134.684 17.8176C135.236 17.9121 135.748 18.1699 136.152 18.5578C136.557 18.946 136.837 19.4462 136.955 19.9946C137.073 20.543 137.025 21.1144 136.817 21.635C136.608 22.1558 136.249 22.6022 135.785 22.9168C135.321 23.2313 134.774 23.3997 134.213 23.4002C133.855 23.4093 133.499 23.347 133.165 23.2173C132.831 23.0873 132.526 22.8922 132.268 22.6435C132.01 22.3948 131.804 22.0972 131.662 21.7678C131.52 21.4387 131.444 21.0845 131.44 20.7259L131.405 20.7088ZM131.405 24.7545H136.97V41.6573H131.491L131.405 24.7545ZM156.984 33.2059C156.984 38.7088 154.519 41.8973 150.324 41.8973C149.25 41.9637 148.182 41.6983 147.263 41.1374C146.345 40.5763 145.621 39.7466 145.188 38.7602H145.085V47.0916H139.589V24.8059H145.051V27.823H145.154C145.571 26.8173 146.289 25.9648 147.208 25.3819C148.127 24.799 149.203 24.5141 150.29 24.5659C154.605 24.5316 157.087 27.703 157.087 33.223L156.984 33.2059ZM151.386 33.2059C151.386 30.5316 150.136 28.8002 148.201 28.8002C146.267 28.8002 145.051 30.5145 145.034 33.2059C145.017 35.8973 146.267 37.5945 148.201 37.5945C150.136 37.5945 151.488 36.0002 151.488 33.223L151.386 33.2059ZM166.367 24.3602C170.972 24.3602 173.832 26.5373 173.866 30.0345H168.849C168.849 28.8173 167.839 28.063 166.333 28.063C164.826 28.063 164.107 28.6459 164.107 29.5202C164.107 30.3945 164.74 30.6688 166.007 30.9259L169.534 31.6459C172.958 32.3659 174.328 33.7373 174.328 36.2916C174.328 39.7202 171.161 42.0516 166.452 42.0516C161.744 42.0516 158.679 39.7888 158.457 36.343H163.782C163.936 37.5945 164.929 38.3316 166.538 38.3316C168.147 38.3316 168.901 37.8173 168.901 36.9088C168.901 36.0002 168.387 35.8459 167.069 35.5716L163.884 34.903C160.58 34.2002 158.851 32.4688 158.851 29.8802C158.953 26.5202 161.83 24.3773 166.47 24.3773L166.367 24.3602ZM192.733 41.6402H187.409V38.4688H187.306C187.008 39.5266 186.359 40.4512 185.466 41.0899C184.572 41.7288 183.488 42.0437 182.392 41.983C181.565 42.01 180.74 41.8615 179.975 41.5471C179.209 41.2329 178.518 40.7599 177.948 40.1594C177.376 39.5587 176.939 38.844 176.664 38.0623C176.388 37.2806 176.28 36.4492 176.348 35.623V24.7716H181.844V34.4402C181.844 36.4288 182.889 37.5088 184.601 37.5088C185.003 37.5057 185.399 37.4164 185.763 37.247C186.128 37.0774 186.452 36.8316 186.712 36.5261C186.974 36.2206 187.167 35.8625 187.279 35.4761C187.388 35.0896 187.416 34.6838 187.357 34.2859V24.7716H192.836L192.733 41.6402ZM195.387 24.7545H200.729V28.0116H200.849C201.143 26.9681 201.777 26.0522 202.647 25.4069C203.518 24.7618 204.578 24.4238 205.66 24.4459C206.747 24.3513 207.831 24.666 208.697 25.3286C209.565 25.9912 210.154 26.9541 210.351 28.0288H210.591C210.933 26.9482 211.622 26.0112 212.551 25.3634C213.479 24.7154 214.597 24.3929 215.727 24.4459C216.479 24.4173 217.229 24.5479 217.926 24.8292C218.624 25.1104 219.254 25.536 219.776 26.0782C220.299 26.6203 220.699 27.2668 220.954 27.9751C221.211 28.6834 221.314 29.4377 221.257 30.1888V41.6573H215.727V31.5945C215.727 29.8802 214.923 28.9202 213.365 28.9202C213.019 28.9145 212.676 28.9838 212.36 29.123C212.043 29.2624 211.762 29.4686 211.533 29.7274C211.303 29.9865 211.132 30.2918 211.031 30.623C210.932 30.9542 210.904 31.303 210.95 31.6459V41.6573H205.711V31.543C205.711 29.8288 204.872 28.9202 203.366 28.9202C203.016 28.9174 202.671 28.9894 202.352 29.1314C202.032 29.2735 201.748 29.4821 201.515 29.7436C201.284 30.005 201.111 30.313 201.008 30.647C200.904 30.9811 200.873 31.3334 200.917 31.6802V41.6573H195.422L195.387 24.7545Z" fill="#E5E5E5"/>
<path d="M55.0618 20.76C55.062 17.348 54.033 14.0156 52.1096 11.1991C50.1862 8.38264 47.4579 6.21346 44.2825 4.97575C41.107 3.73802 37.6321 3.48945 34.3131 4.26257C30.994 5.0357 27.9856 6.79449 25.6818 9.30856H4.31458V54.4628H49.4289V33.36C51.1996 31.7743 52.6166 29.8325 53.5872 27.6614C54.5578 25.4902 55.0603 23.1387 55.0618 20.76ZM46.3814 20.76C46.3848 22.3949 45.9037 23.9942 44.999 25.3553C44.0941 26.7163 42.8066 27.7781 41.2989 28.406C39.7912 29.0342 38.1315 29.2003 36.5295 28.8833C34.9276 28.5665 33.4555 27.7808 32.2997 26.6259C31.1438 25.471 30.3563 23.9988 30.0364 22.3954C29.7166 20.7922 29.8791 19.1299 30.5032 17.6191C31.1272 16.1082 32.185 14.8167 33.5423 13.908C34.8999 12.9993 36.4961 12.5143 38.1289 12.5143C40.3146 12.5143 42.4111 13.3825 43.9582 14.9283C45.5054 16.4742 46.3769 18.5715 46.3814 20.76ZM40.7485 45.7714H12.995V18H21.4529C21.2895 18.9111 21.2036 19.8344 21.1961 20.76C21.2007 25.2552 22.9861 29.5649 26.1607 32.7435C29.3351 35.922 33.6394 37.7098 38.1289 37.7143C39.0067 37.7096 39.8827 37.6351 40.7485 37.4914V45.7714Z" fill="#E5E5E5"/>
<path d="M386.094 45.208C385.071 45.2634 384.059 44.9735 383.222 44.3852C382.872 44.1267 382.591 43.7871 382.402 43.3959C382.213 43.0045 382.123 42.5733 382.139 42.1395V26.248C382.13 26.1808 382.137 26.1124 382.16 26.0483C382.182 25.9842 382.218 25.9261 382.266 25.8781C382.314 25.8301 382.373 25.7937 382.437 25.7718C382.501 25.7497 382.57 25.7427 382.637 25.7509H385.527C385.853 25.7509 386.008 25.9223 386.008 26.248V40.9052C386.008 41.5566 386.3 41.8823 386.902 41.8823C387.157 41.8928 387.413 41.864 387.659 41.7966C388.003 41.7966 388.192 41.8995 388.209 42.208L388.467 44.3509C388.48 44.4135 388.478 44.4777 388.464 44.5398C388.449 44.6017 388.421 44.66 388.382 44.7102C388.343 44.7606 388.293 44.8021 388.237 44.8318C388.181 44.8614 388.118 44.8787 388.054 44.8823C387.422 45.0908 386.76 45.2007 386.094 45.208Z" fill="#E5E5E5"/>
<path d="M402.345 43.3738C400.894 44.5696 399.069 45.2236 397.186 45.2236C395.303 45.2236 393.479 44.5696 392.027 43.3738C390.751 42.0898 390.035 40.3555 390.035 38.5481C390.035 36.7408 390.751 35.0064 392.027 33.7224C393.481 32.5329 395.305 31.8828 397.186 31.8828C399.067 31.8828 400.891 32.5329 402.345 33.7224C403.592 35.0182 404.288 36.7442 404.288 38.5396C404.288 40.3349 403.592 42.0609 402.345 43.3567V43.3738ZM394.744 41.111C395.418 41.7194 396.294 42.0562 397.203 42.0562C398.112 42.0562 398.989 41.7194 399.662 41.111C400.272 40.4122 400.608 39.5172 400.608 38.591C400.608 37.6649 400.272 36.7699 399.662 36.071C398.989 35.4628 398.112 35.1257 397.203 35.1257C396.294 35.1257 395.418 35.4628 394.744 36.071C394.134 36.7699 393.799 37.6649 393.799 38.591C393.799 39.5172 394.134 40.4122 394.744 41.111Z" fill="#E5E5E5"/>
<path d="M420.196 32.3165C420.522 32.3165 420.677 32.4879 420.677 32.8137V45.1051C420.707 45.9348 420.551 46.7606 420.221 47.5226C419.891 48.2847 419.395 48.9639 418.768 49.5108C417.378 50.6928 415.59 51.3053 413.764 51.2251C412.115 51.2829 410.488 50.8341 409.104 49.9394C408.512 49.5525 408.007 49.0483 407.62 48.4586C407.232 47.8687 406.97 47.2058 406.851 46.5108C406.851 46.1679 406.851 46.0137 407.315 46.0137H410.204C410.327 46.0178 410.446 46.0574 410.546 46.1273C410.647 46.1973 410.725 46.2946 410.772 46.4079C410.959 46.9286 411.333 47.3621 411.821 47.6251C412.416 47.9311 413.078 48.0843 413.747 48.0708C414.151 48.0929 414.555 48.0345 414.936 47.899C415.316 47.7638 415.666 47.5539 415.965 47.2822C416.238 46.998 416.45 46.6615 416.589 46.2933C416.728 45.925 416.791 45.5325 416.773 45.1394V44.0594C415.739 44.8178 414.48 45.21 413.196 45.1737C412.298 45.2062 411.402 45.0576 410.563 44.7365C409.724 44.4153 408.958 43.9286 408.312 43.3051C407.073 42.0266 406.38 40.3178 406.38 38.5394C406.38 36.7611 407.073 35.0523 408.312 33.7737C408.962 33.1558 409.728 32.6738 410.567 32.3558C411.406 32.0378 412.3 31.8903 413.196 31.9222C414.517 31.8874 415.81 32.305 416.859 33.1051V32.8308C416.851 32.7651 416.858 32.6985 416.88 32.6357C416.901 32.5731 416.936 32.5159 416.982 32.4682C417.028 32.4206 417.084 32.3839 417.146 32.3606C417.208 32.3373 417.275 32.3282 417.341 32.3337L420.196 32.3165ZM413.523 42.1222C413.966 42.1359 414.407 42.0525 414.814 41.8776C415.221 41.7029 415.585 41.4411 415.879 41.1108C416.451 40.3749 416.761 39.4702 416.761 38.5394C416.761 37.6085 416.451 36.7041 415.879 35.9679C415.586 35.6422 415.224 35.3842 414.82 35.2125C414.416 35.0407 413.979 34.9593 413.54 34.9737C413.092 34.9596 412.646 35.0427 412.234 35.2174C411.821 35.3921 411.451 35.6541 411.15 35.9851C410.517 36.6891 410.184 37.6116 410.221 38.5565C410.19 39.4922 410.516 40.4049 411.133 41.1108C411.435 41.441 411.805 41.7024 412.217 41.8769C412.63 42.0514 413.075 42.1351 413.523 42.1222Z" fill="#E5E5E5"/>
<path d="M435.518 43.3738C434.064 44.5633 432.24 45.2134 430.359 45.2134C428.478 45.2134 426.654 44.5633 425.2 43.3738C423.952 42.075 423.256 40.3463 423.256 38.548C423.256 36.7499 423.952 35.0211 425.2 33.7223C426.656 32.5359 428.479 31.8877 430.359 31.8877C432.24 31.8877 434.062 32.5359 435.518 33.7223C436.765 35.0182 437.461 36.7441 437.461 38.5395C437.461 40.3348 436.765 42.0608 435.518 43.3566V43.3738ZM427.9 41.1109C428.23 41.4236 428.618 41.6679 429.043 41.8297C429.468 41.9915 429.921 42.0678 430.376 42.0538C430.828 42.0654 431.278 41.9883 431.7 41.8264C432.122 41.6646 432.508 41.4215 432.835 41.1109C433.435 40.4074 433.765 39.5142 433.765 38.5909C433.765 37.6676 433.435 36.7744 432.835 36.0709C432.508 35.7604 432.122 35.5172 431.7 35.3555C431.278 35.1937 430.828 35.1164 430.376 35.128C429.921 35.1142 429.468 35.1903 429.043 35.3521C428.618 35.5139 428.23 35.7584 427.9 36.0709C427.3 36.7744 426.971 37.6676 426.971 38.5909C426.971 39.5142 427.3 40.4074 427.9 41.1109Z" fill="#E5E5E5"/>
<path d="M443.669 29.4023C443.215 29.799 442.631 30.0176 442.027 30.0176C441.423 30.0176 440.84 29.799 440.385 29.4023C440.179 29.2084 440.015 28.9746 439.902 28.7152C439.79 28.4559 439.732 28.1763 439.732 27.8937C439.732 27.6112 439.79 27.3318 439.902 27.0723C440.015 26.8129 440.179 26.5791 440.385 26.3852C440.844 25.9984 441.426 25.7864 442.027 25.7864C442.628 25.7864 443.21 25.9984 443.669 26.3852C443.876 26.5791 444.04 26.8129 444.152 27.0723C444.264 27.3318 444.322 27.6112 444.322 27.8937C444.322 28.1763 444.264 28.4559 444.152 28.7152C444.04 28.9746 443.876 29.2084 443.669 29.4023ZM444.031 45.208C443.008 45.2581 441.998 44.9687 441.159 44.3852C440.814 44.1229 440.538 43.7821 440.352 43.3914C440.167 43.0007 440.078 42.5715 440.093 42.1395V32.8137C440.084 32.7465 440.091 32.6781 440.113 32.614C440.136 32.5499 440.172 32.4918 440.22 32.4438C440.268 32.3958 440.327 32.3595 440.391 32.3375C440.455 32.3154 440.524 32.3084 440.591 32.3166H443.48C443.807 32.3166 443.962 32.488 443.962 32.8137V40.9052C443.962 41.5566 444.254 41.8823 444.839 41.8823C445.1 41.8917 445.36 41.8628 445.613 41.7966C445.957 41.7966 446.146 41.8995 446.163 42.208L446.421 44.3509C446.433 44.4135 446.432 44.4777 446.418 44.5398C446.403 44.6017 446.375 44.66 446.336 44.7102C446.297 44.7606 446.247 44.8021 446.191 44.8317C446.134 44.8614 446.072 44.8787 446.008 44.8823C445.37 45.092 444.703 45.2019 444.031 45.208Z" fill="#E5E5E5"/>
<path d="M457.049 31.9052C457.951 31.8697 458.851 32.0152 459.696 32.3332C460.541 32.6514 461.314 33.1354 461.967 33.7566C463.183 35.0578 463.859 36.7698 463.859 38.548C463.859 40.3263 463.183 42.0385 461.967 43.3395C461.317 43.9664 460.545 44.4551 459.7 44.7762C458.855 45.0975 457.953 45.2444 457.049 45.208C455.761 45.2367 454.499 44.8455 453.455 44.0938V50.2823C453.455 50.608 453.283 50.7623 452.956 50.7623H450.067C450.001 50.7747 449.933 50.7707 449.869 50.751C449.805 50.7311 449.747 50.6961 449.699 50.6488C449.652 50.6015 449.617 50.5436 449.597 50.4796C449.577 50.4159 449.573 50.3482 449.585 50.2823V36.2252C449.606 36.0877 449.593 35.9475 449.549 35.8155C449.506 35.6836 449.431 35.5636 449.333 35.4654C449.234 35.3672 449.114 35.2933 448.982 35.2496C448.849 35.2059 448.709 35.1937 448.571 35.2138H448.003C447.625 35.2138 447.436 35.0766 447.436 34.8023V32.7795C447.427 32.6543 447.461 32.5299 447.533 32.427C447.605 32.324 447.71 32.2487 447.831 32.2138C448.426 31.9983 449.056 31.8937 449.688 31.9052C450.32 31.8495 450.953 31.983 451.508 32.2883C452.062 32.5938 452.513 33.0574 452.801 33.6195C453.355 33.061 454.017 32.6209 454.748 32.326C455.478 32.0314 456.261 31.888 457.049 31.9052ZM454.366 41.1109C454.673 41.4304 455.041 41.6847 455.449 41.8583C455.857 42.032 456.296 42.1215 456.739 42.1215C457.183 42.1215 457.622 42.032 458.029 41.8583C458.437 41.6847 458.806 41.4304 459.112 41.1109C459.758 40.3928 460.098 39.4518 460.058 38.488C460.103 37.5236 459.763 36.5804 459.112 35.8652C458.806 35.5458 458.437 35.2916 458.029 35.1179C457.622 34.9441 457.183 34.8546 456.739 34.8546C456.296 34.8546 455.857 34.9441 455.449 35.1179C455.041 35.2916 454.673 35.5458 454.366 35.8652C453.74 36.5931 453.415 37.5303 453.455 38.488C453.42 39.4451 453.745 40.3806 454.366 41.1109Z" fill="#E5E5E5"/>
<path d="M471.976 45.2079C470.432 45.2712 468.901 44.9031 467.556 44.1451C467.016 43.8211 466.557 43.38 466.211 42.8547C465.866 42.3295 465.644 41.7334 465.561 41.1108C465.561 40.7679 465.682 40.5965 466.06 40.5965H468.588C468.708 40.6013 468.825 40.6388 468.925 40.7055C469.025 40.772 469.105 40.8648 469.155 40.9736C469.517 41.8994 470.462 42.3622 471.976 42.3622C472.504 42.3864 473.029 42.2803 473.506 42.0536C473.671 41.9796 473.812 41.8623 473.915 41.7144C474.018 41.5664 474.079 41.3933 474.091 41.2136C474.091 40.7679 473.816 40.4594 473.265 40.2536C472.613 40.0371 471.938 39.8933 471.253 39.8251C470.443 39.7335 469.638 39.5904 468.846 39.3965C468.075 39.2227 467.374 38.8226 466.834 38.2479C466.515 37.8574 466.281 37.4057 466.145 36.9211C466.01 36.4364 465.975 35.929 466.045 35.4307C466.114 34.9322 466.286 34.4532 466.549 34.0238C466.812 33.5942 467.16 33.2232 467.573 32.9336C468.813 32.1466 470.267 31.7631 471.735 31.8365C473.156 31.7887 474.562 32.1391 475.793 32.8479C476.29 33.1282 476.717 33.5151 477.044 33.9807C477.371 34.4463 477.59 34.9788 477.685 35.5394C477.685 35.8822 477.53 36.0536 477.221 36.0536H474.676C474.568 36.06 474.462 36.0339 474.37 35.9789C474.278 35.9239 474.205 35.8423 474.16 35.7451C473.99 35.3391 473.669 35.0138 473.265 34.8365C472.81 34.5989 472.301 34.4808 471.787 34.4936C471.282 34.4664 470.78 34.5667 470.325 34.7851C470.164 34.8468 470.027 34.9548 469.928 35.0954C469.83 35.2359 469.777 35.4026 469.774 35.5736C469.785 35.8082 469.872 36.0329 470.02 36.215C470.169 36.397 470.372 36.5266 470.6 36.5851C471.26 36.8333 471.947 37.0058 472.646 37.0994C473.451 37.205 474.249 37.3538 475.037 37.5451C475.808 37.7191 476.508 38.119 477.049 38.6936C477.338 39.0103 477.561 39.3807 477.706 39.7839C477.851 40.187 477.914 40.6147 477.891 41.0422C477.906 41.6348 477.767 42.2211 477.486 42.744C477.206 43.2667 476.795 43.7081 476.292 44.0251C475.007 44.8474 473.502 45.2599 471.976 45.2079Z" fill="#E5E5E5"/>
<path d="M496.069 44.3509C496.079 44.4118 496.076 44.474 496.062 44.5338C496.046 44.5938 496.021 44.6501 495.983 44.6996C495.947 44.7492 495.9 44.7908 495.847 44.8222C495.793 44.8536 495.735 44.874 495.673 44.8824C495.045 45.0867 494.39 45.1966 493.73 45.2081C493.076 45.2756 492.416 45.1738 491.814 44.9125C491.21 44.6513 490.686 44.2393 490.29 43.7166C489.076 44.7577 487.505 45.2919 485.905 45.2081C485.162 45.2422 484.421 45.121 483.728 44.8524C483.035 44.5837 482.406 44.1735 481.881 43.6481C481.36 43.0976 480.956 42.4479 480.693 41.738C480.43 41.0281 480.314 40.2727 480.351 39.5167V32.8138C480.351 32.4881 480.505 32.3167 480.832 32.3167H483.721C484.048 32.3167 484.203 32.4881 484.203 32.8138V39.0024C484.172 39.7734 484.435 40.5274 484.942 41.1109C485.195 41.3784 485.503 41.5885 485.843 41.7276C486.184 41.8666 486.552 41.9311 486.92 41.9167C487.296 41.9331 487.673 41.875 488.027 41.7454C488.382 41.616 488.707 41.4178 488.983 41.1624C489.245 40.8932 489.45 40.5733 489.582 40.2224C489.716 39.8715 489.775 39.4971 489.757 39.1224V32.8138C489.757 32.4881 489.912 32.3167 490.239 32.3167H493.162C493.489 32.3167 493.644 32.4881 493.644 32.8138V40.8881C493.644 41.5567 493.936 41.8824 494.504 41.8824C494.77 41.8926 495.037 41.8639 495.295 41.7967C495.36 41.7785 495.429 41.7752 495.494 41.7872C495.561 41.799 495.623 41.8258 495.678 41.8654C495.733 41.905 495.778 41.9564 495.811 42.0157C495.842 42.0751 495.859 42.1409 495.862 42.2081L496.069 44.3509Z" fill="#E5E5E5"/>
<path d="M523.395 44.351C523.41 44.4123 523.412 44.4764 523.4 44.5385C523.386 44.6004 523.36 44.659 523.322 44.7098C523.285 44.7605 523.236 44.8023 523.18 44.8322C523.125 44.8622 523.063 44.8793 522.999 44.8824C522.359 45.0896 521.694 45.1995 521.021 45.2081C519.998 45.2607 518.989 44.9712 518.15 44.3852C517.787 44.1343 517.493 43.7981 517.291 43.4064C517.09 43.0147 516.989 42.5794 516.997 42.1395V38.111C517.033 37.3423 516.776 36.5885 516.275 36.0024C516.034 35.7344 515.735 35.5232 515.403 35.3839C515.07 35.2447 514.71 35.1807 514.349 35.1967C514.024 35.1845 513.701 35.246 513.401 35.3767C513.104 35.5073 512.841 35.7038 512.629 35.951C512.175 36.5254 511.943 37.2434 511.976 37.9738V44.2995C511.976 44.6252 511.821 44.7967 511.494 44.7967H508.588C508.521 44.8051 508.452 44.7979 508.389 44.7759C508.323 44.7538 508.265 44.7175 508.217 44.6695C508.168 44.6216 508.132 44.5634 508.11 44.4992C508.088 44.4351 508.081 44.3669 508.089 44.2995V38.111C508.127 37.3507 507.888 36.6022 507.419 36.0024C507.209 35.7504 506.946 35.5476 506.648 35.4084C506.352 35.2692 506.027 35.1968 505.699 35.1967C505.348 35.1826 504.999 35.2424 504.672 35.3726C504.346 35.5025 504.051 35.6996 503.807 35.951C503.315 36.5071 503.063 37.2336 503.102 37.9738V44.2995C503.111 44.3669 503.104 44.4351 503.082 44.4992C503.059 44.5634 503.023 44.6216 502.975 44.6695C502.927 44.7175 502.868 44.7538 502.805 44.7759C502.739 44.7979 502.671 44.8051 502.603 44.7967H499.8C499.474 44.7967 499.319 44.6252 499.319 44.2995V36.2252C499.339 36.0878 499.327 35.9475 499.283 35.8155C499.24 35.6837 499.166 35.5637 499.066 35.4655C498.968 35.3672 498.848 35.2934 498.715 35.2496C498.583 35.2059 498.442 35.1938 498.304 35.2138H497.737C497.358 35.2138 497.169 35.0767 497.169 34.8024V32.7795C497.161 32.6544 497.195 32.5299 497.267 32.4271C497.339 32.324 497.444 32.2488 497.565 32.2138C498.16 31.9983 498.789 31.8938 499.422 31.9052C500.029 31.8536 500.64 31.9743 501.181 32.2534C501.723 32.5325 502.174 32.9585 502.483 33.4824C503.063 32.9343 503.751 32.5112 504.502 32.2399C505.254 31.9685 506.053 31.8547 506.851 31.9052C507.627 31.8675 508.399 32.0124 509.107 32.3282C509.816 32.6439 510.438 33.1215 510.927 33.7224C511.496 33.1058 512.196 32.623 512.975 32.3086C513.754 31.9944 514.593 31.8567 515.432 31.9052C516.182 31.8703 516.932 31.9908 517.634 32.2594C518.335 32.5279 518.973 32.9384 519.508 33.4652C520.031 34.0147 520.435 34.6642 520.698 35.3744C520.961 36.0845 521.078 36.8407 521.039 37.5967V40.9052C521.039 41.5567 521.331 41.8824 521.881 41.8824C522.148 41.8947 522.414 41.8659 522.672 41.7967C523.028 41.7967 523.217 41.9338 523.24 42.2081L523.395 44.351Z" fill="#E5E5E5"/>
<path d="M321.743 30.088C323.012 25.0046 325.95 20.4904 330.09 17.2643C334.23 14.0382 339.334 12.2856 344.589 12.2856C349.844 12.2856 354.948 14.0382 359.088 17.2643C363.228 20.4904 366.167 25.0046 367.435 30.088H365.372C361.89 30.0369 358.481 31.074 355.621 33.0537C355.456 33.1728 355.284 33.2817 355.105 33.3794H354.864C354.686 33.2817 354.513 33.1728 354.348 33.0537C351.463 31.1198 348.066 30.087 344.589 30.087C341.113 30.087 337.715 31.1198 334.83 33.0537C334.665 33.1728 334.492 33.2817 334.314 33.3794H334.073C333.895 33.2817 333.722 33.1728 333.557 33.0537C330.698 31.074 327.288 30.0369 323.807 30.088H321.743ZM361.657 40.8366C362.716 40.0142 364.029 39.5839 365.372 39.6194H368.14V34.1166H365.372C363.007 34.0881 360.697 34.8216 358.785 36.208C357.709 36.9988 356.408 37.4255 355.071 37.4255C353.734 37.4255 352.432 36.9988 351.356 36.208C349.396 34.8475 347.064 34.1181 344.675 34.1181C342.286 34.1181 339.955 34.8475 337.994 36.208C336.918 36.9988 335.616 37.4255 334.28 37.4255C332.943 37.4255 331.641 36.9988 330.565 36.208C328.629 34.8038 326.286 34.0694 323.893 34.1166H321.038V39.6194H323.807C325.149 39.5839 326.462 40.0142 327.521 40.8366C329.478 42.198 331.807 42.928 334.194 42.928C336.58 42.928 338.909 42.198 340.866 40.8366C341.927 40.0168 343.239 39.5868 344.581 39.6194C345.923 39.581 347.237 40.0116 348.295 40.8366C350.256 42.1972 352.587 42.9264 354.976 42.9264C357.365 42.9264 359.696 42.1972 361.657 40.8366ZM361.657 50.6766C362.716 49.8542 364.029 49.4239 365.372 49.4594H368.14V43.9566H365.372C363.007 43.9281 360.697 44.6616 358.785 46.048C357.709 46.8388 356.408 47.2655 355.071 47.2655C353.734 47.2655 352.432 46.8388 351.356 46.048C349.396 44.6875 347.064 43.9583 344.675 43.9583C342.286 43.9583 339.955 44.6875 337.994 46.048C336.918 46.8388 335.616 47.2655 334.28 47.2655C332.943 47.2655 331.641 46.8388 330.565 46.048C328.629 44.644 326.286 43.9094 323.893 43.9566H321.038V49.4594H323.807C325.149 49.4239 326.462 49.8542 327.521 50.6766C329.478 52.038 331.807 52.768 334.194 52.768C336.58 52.768 338.909 52.038 340.866 50.6766C341.927 49.8568 343.239 49.4268 344.581 49.4594C345.923 49.421 347.237 49.8516 348.295 50.6766C350.256 52.0372 352.587 52.7664 354.976 52.7664C357.365 52.7664 359.696 52.0372 361.657 50.6766Z" fill="#E5E5E5"/>
<path d="M645.403 19.344V12.094H622.503V61.9058H645.403V54.6558C640.712 54.6558 636.213 52.7955 632.896 49.4844C629.579 46.1733 627.716 41.6825 627.716 36.9999C627.716 32.3172 629.579 27.8263 632.896 24.5153C636.213 21.2042 640.712 19.344 645.403 19.344Z" fill="#E5E5E5"/>
<path d="M645.403 19.344V54.6558C650.094 54.6558 654.593 52.7955 657.911 49.4844C661.228 46.1733 663.091 41.6825 663.091 36.9999C663.091 32.3172 661.228 27.8263 657.911 24.5153C654.593 21.2042 650.094 19.344 645.403 19.344Z" fill="#E5E5E5"/>
<path d="M675.942 23.7793H681.069V48.4293H675.942V23.7793Z" fill="#E5E5E5"/>
<path d="M683.94 39.9852C683.94 38.2118 684.468 36.4783 685.456 35.0044C686.444 33.5305 687.848 32.3826 689.491 31.7062C691.133 31.03 692.94 30.8557 694.682 31.2054C696.423 31.5551 698.022 32.4132 699.275 33.6707C700.527 34.9285 701.378 36.5289 701.718 38.2696C702.058 40.0103 701.874 41.8126 701.187 43.4482C700.5 45.0836 699.342 46.4788 697.86 47.4567C696.377 48.4346 694.638 48.9512 692.861 48.9411C691.683 48.9503 690.514 48.7246 689.424 48.277C688.335 47.8296 687.345 47.1694 686.514 46.3354C685.683 45.5012 685.028 44.5097 684.586 43.4193C684.144 42.3289 683.924 41.1614 683.94 39.9852ZM696.792 39.9852C696.771 39.2207 696.526 38.4789 696.086 37.853C695.645 37.227 695.03 36.7444 694.317 36.4657C693.603 36.1869 692.823 36.1243 692.074 36.2859C691.325 36.4472 690.641 36.8254 690.106 37.3734C689.571 37.9211 689.21 38.614 689.068 39.3657C688.926 40.1173 689.009 40.894 689.306 41.5987C689.604 42.3034 690.103 42.905 690.742 43.3279C691.38 43.751 692.129 43.9767 692.895 43.977C693.417 43.9872 693.935 43.8898 694.417 43.6909C694.9 43.4922 695.336 43.1962 695.698 42.8216C696.061 42.447 696.342 42.0016 696.524 41.5137C696.706 41.0257 696.786 40.5054 696.757 39.9852H696.792Z" fill="#E5E5E5"/>
<path d="M722.067 31.5412V47.5935C722.067 53.2571 717.624 55.6624 713.129 55.6624C711.544 55.7922 709.954 55.4778 708.538 54.7545C707.122 54.0312 705.936 52.9277 705.114 51.5682L709.438 49.0777C709.788 49.7829 710.346 50.3646 711.036 50.7455C711.726 51.1264 712.516 51.2885 713.3 51.21C713.8 51.2714 714.307 51.222 714.786 51.065C715.264 50.9079 715.702 50.6474 716.067 50.3018C716.433 49.9562 716.718 49.5343 716.901 49.0661C717.085 48.598 717.162 48.0951 717.128 47.5935V46.0412C716.532 46.7633 715.775 47.3365 714.917 47.7155C714.06 48.0946 713.126 48.2689 712.189 48.2247C709.923 48.2247 707.75 47.3261 706.147 45.7265C704.545 44.127 703.645 41.9575 703.645 39.6953C703.645 37.4331 704.545 35.2638 706.147 33.6642C707.75 32.0646 709.923 31.1659 712.189 31.1659C713.126 31.1217 714.06 31.2961 714.917 31.6751C715.775 32.0541 716.532 32.6273 717.128 33.3494V31.6435L722.067 31.5412ZM717.128 39.6441C717.162 38.828 716.951 38.0203 716.522 37.325C716.092 36.6297 715.464 36.0785 714.718 35.7423C713.972 35.406 713.143 35.3003 712.336 35.4384C711.53 35.5766 710.783 35.9524 710.192 36.5176C709.602 37.0827 709.194 37.8115 709.021 38.61C708.848 39.4085 708.919 40.2402 709.224 40.9983C709.529 41.7564 710.054 42.4061 710.731 42.864C711.409 43.3218 712.208 43.567 713.027 43.5677C713.561 43.606 714.097 43.5322 714.6 43.351C715.104 43.1697 715.564 42.885 715.95 42.5151C716.337 42.1455 716.641 41.6989 716.844 41.2043C717.047 40.7098 717.144 40.1782 717.128 39.6441Z" fill="#E5E5E5"/>
<path d="M724.955 39.9852C724.955 38.2131 725.482 36.481 726.468 35.0078C727.455 33.5346 728.857 32.3867 730.498 31.7095C732.138 31.0321 733.943 30.8557 735.684 31.2026C737.425 31.5496 739.023 32.4043 740.278 33.6584C741.532 34.9128 742.385 36.5102 742.729 38.2485C743.073 39.9869 742.893 41.7882 742.211 43.4243C741.53 45.0606 740.377 46.458 738.899 47.4401C737.422 48.4222 735.685 48.9445 733.91 48.9411C732.73 48.9525 731.558 48.7285 730.466 48.2823C729.373 47.836 728.38 47.1765 727.547 46.3424C726.712 45.5082 726.054 44.5162 725.609 43.4246C725.164 42.333 724.942 41.1636 724.955 39.9852ZM737.807 39.9852C737.786 39.22 737.54 38.4776 737.099 37.8512C736.658 37.2249 736.042 36.7423 735.328 36.4641C734.613 36.1859 733.832 36.1243 733.083 36.2872C732.333 36.4499 731.649 36.83 731.115 37.3795C730.581 37.9289 730.221 38.6236 730.081 39.3762C729.941 40.1288 730.026 40.906 730.326 41.6104C730.626 42.3149 731.128 42.9152 731.769 43.3362C732.41 43.7571 733.16 43.98 733.927 43.977C734.449 43.9872 734.967 43.8898 735.449 43.6909C735.932 43.4922 736.368 43.1962 736.73 42.8216C737.093 42.447 737.374 42.0016 737.556 41.5137C737.738 41.0256 737.818 40.5053 737.789 39.9852H737.807Z" fill="#E5E5E5"/>
<path d="M745.241 27.0206C745.241 26.4201 745.419 25.833 745.753 25.3337C746.087 24.8343 746.563 24.4451 747.118 24.2153C747.674 23.9854 748.286 23.9253 748.876 24.0425C749.466 24.1596 750.008 24.4488 750.434 24.8735C750.859 25.2982 751.149 25.8393 751.266 26.4282C751.383 27.0172 751.323 27.6277 751.093 28.1827C750.863 28.7374 750.473 29.2116 749.972 29.5453C749.472 29.879 748.884 30.0571 748.282 30.0571C747.478 30.0482 746.71 29.7255 746.141 29.1579C745.573 28.5904 745.249 27.8232 745.241 27.0206ZM745.736 31.5412H750.863V48.4294H745.736V31.5412Z" fill="#E5E5E5"/>
<path d="M772.806 39.9854C772.863 41.1086 772.698 42.2321 772.319 43.2911C771.94 44.3501 771.354 45.3238 770.597 46.1561C769.839 46.9886 768.924 47.6631 767.904 48.1411C766.884 48.6191 765.78 48.891 764.654 48.9413C763.699 49.0048 762.742 48.8521 761.854 48.4947C760.967 48.1372 760.171 47.5843 759.527 46.8772V55.219H754.401V31.5413H759.527V33.1278C760.172 32.4227 760.968 31.8724 761.856 31.5179C762.744 31.1633 763.7 31.0139 764.654 31.0807C765.775 31.1311 766.875 31.4014 767.892 31.8762C768.908 32.3509 769.821 33.021 770.578 33.8478C771.335 34.6747 771.921 35.6423 772.303 36.6955C772.686 37.7485 772.857 38.8664 772.806 39.9854ZM767.679 39.9854C767.659 39.1931 767.405 38.4244 766.949 37.7756C766.493 37.1269 765.855 36.6267 765.116 36.3383C764.376 36.0496 763.568 35.9855 762.792 36.1535C762.016 36.3215 761.307 36.7146 760.754 37.2831C760.201 37.8517 759.828 38.5706 759.683 39.3498C759.537 40.1289 759.625 40.9336 759.936 41.663C760.246 42.3923 760.766 43.0139 761.429 43.4499C762.092 43.8859 762.869 44.1167 763.663 44.1137C764.207 44.1367 764.749 44.0448 765.255 43.8438C765.761 43.6429 766.218 43.3375 766.598 42.9477C766.977 42.5579 767.269 42.0924 767.456 41.582C767.642 41.0714 767.718 40.5274 767.679 39.9854Z" fill="#E5E5E5"/>
<path d="M788.409 43.363C788.409 47.2524 784.991 48.9071 781.368 48.9071C779.89 49.0399 778.407 48.7272 777.109 48.0095C775.811 47.2918 774.759 46.2021 774.088 44.8813L778.497 42.3907C778.671 42.9993 779.05 43.5297 779.57 43.893C780.089 44.2564 780.718 44.4306 781.351 44.3865C782.564 44.3865 783.179 44.0113 783.179 43.3289C783.179 41.4695 774.857 42.4589 774.857 36.6077C774.857 32.923 777.967 31.0807 781.487 31.0807C782.826 31.0208 784.155 31.3239 785.334 31.9577C786.514 32.5914 787.5 33.5322 788.187 34.6801L783.777 37.0001C783.583 36.56 783.264 36.1857 782.861 35.9223C782.458 35.6589 781.986 35.5178 781.505 35.516C780.616 35.516 780.086 35.8571 780.086 36.4542C780.086 38.3989 788.409 37.1195 788.409 43.363Z" fill="#E5E5E5"/>
<path d="M806.985 31.5413V48.4295H801.858V46.843C801.275 47.5453 800.535 48.1009 799.7 48.4655C798.862 48.83 797.952 48.9929 797.039 48.9413C793.621 48.9413 790.699 46.5018 790.699 41.9471V31.5413H795.826V41.1795C795.785 41.5824 795.832 41.9893 795.966 42.3721C796.099 42.7547 796.313 43.1041 796.593 43.3961C796.875 43.688 797.217 43.9156 797.594 44.0631C797.972 44.2105 798.377 44.2743 798.782 44.2501C800.628 44.2501 801.927 43.1583 801.927 40.8383V31.5413H806.985Z" fill="#E5E5E5"/>
<path d="M836.037 38.0577V48.4294H830.91V38.5012C830.91 36.7953 830.107 35.7377 828.484 35.7377C826.86 35.7377 825.835 36.9147 825.835 38.9106V48.4294H820.708V38.5012C820.708 36.7953 819.905 35.7377 818.281 35.7377C816.658 35.7377 815.632 36.9147 815.632 38.9106V48.4294H810.506V31.5412H815.632V33.0935C816.164 32.4078 816.856 31.8646 817.651 31.5132C818.444 31.1618 819.313 31.013 820.178 31.0806C821.045 31.0354 821.909 31.2162 822.685 31.605C823.461 31.9938 824.122 32.5773 824.604 33.2982C825.168 32.5449 825.913 31.9465 826.771 31.5588C827.628 31.1708 828.571 31.0064 829.509 31.0806C833.508 31.0806 836.037 33.8441 836.037 38.0577Z" fill="#E5E5E5"/>
<path d="M840.344 31.439C842.42 31.439 844.104 29.7587 844.104 27.686C844.104 25.6134 842.42 23.9331 840.344 23.9331C838.267 23.9331 836.584 25.6134 836.584 27.686C836.584 29.7587 838.267 31.439 840.344 31.439Z" fill="#E5E5E5"/>
<path d="M994.333 25.3078H999.486V46.1562H994.333V25.3078ZM1001.53 38.2843C1001.53 33.1281 1004.69 30.0515 1009.57 30.0515C1014.45 30.0515 1017.61 33.1281 1017.61 38.2843C1017.61 43.4406 1014.52 46.5343 1009.57 46.5343C1004.62 46.5343 1001.53 43.5265 1001.53 38.2843ZM1012.44 38.2843C1012.44 35.4484 1011.32 33.7812 1009.57 33.7812C1007.82 33.7812 1006.72 35.5 1006.72 38.2843C1006.72 41.0687 1007.8 42.7531 1009.57 42.7531C1011.34 42.7531 1012.44 41.1718 1012.44 38.3015V38.2843ZM1019.55 47.1703H1024.5C1024.73 47.6936 1025.13 48.1269 1025.63 48.4057C1026.13 48.6843 1026.71 48.7936 1027.28 48.7171C1029.24 48.7171 1030.27 47.6515 1030.27 46.1047V43.2171H1030.17C1029.75 44.1021 1029.09 44.8436 1028.25 45.3462C1027.42 45.8486 1026.45 46.0888 1025.48 46.0359C1021.71 46.0359 1019.22 43.1656 1019.22 38.2328C1019.22 33.3 1021.59 30.189 1025.54 30.189C1026.55 30.1497 1027.54 30.4183 1028.39 30.9589C1029.24 31.4996 1029.9 32.2864 1030.29 33.214V30.3437H1035.44V45.9843C1035.44 49.7484 1032.12 52.0859 1027.23 52.0859C1022.68 52.0859 1019.84 50.0406 1019.55 47.1875V47.1703ZM1030.29 38.2672C1030.29 35.7578 1029.13 34.1765 1027.31 34.1765C1025.49 34.1765 1024.38 35.7406 1024.38 38.2672C1024.38 40.7937 1025.48 42.2203 1027.31 42.2203C1029.15 42.2203 1030.29 40.8281 1030.29 38.2843V38.2672ZM1037.38 38.2672C1037.38 33.1109 1040.54 30.0343 1045.42 30.0343C1050.3 30.0343 1053.47 33.1109 1053.47 38.2672C1053.47 43.4234 1050.38 46.5171 1045.42 46.5171C1040.45 46.5171 1037.38 43.5265 1037.38 38.2843V38.2672ZM1048.29 38.2672C1048.29 35.4312 1047.17 33.764 1045.42 33.764C1043.67 33.764 1042.65 35.5 1042.65 38.3015C1042.65 41.1031 1043.74 42.7703 1045.49 42.7703C1047.24 42.7703 1048.29 41.1718 1048.29 38.3015V38.2672ZM1055.43 26.5968C1055.42 26.0762 1055.56 25.5634 1055.84 25.1232C1056.12 24.683 1056.52 24.3354 1057 24.1244C1057.47 23.9134 1058 23.8486 1058.51 23.938C1059.02 24.0275 1059.5 24.2673 1059.88 24.627C1060.25 24.9867 1060.51 25.4501 1060.63 25.9585C1060.74 26.4669 1060.7 26.9973 1060.51 27.4827C1060.32 27.9679 1059.99 28.3862 1059.57 28.6844C1059.14 28.9826 1058.63 29.1475 1058.11 29.1578C1057.77 29.1815 1057.42 29.1335 1057.1 29.017C1056.77 28.9005 1056.47 28.7179 1056.22 28.4806C1055.97 28.2434 1055.77 27.9565 1055.63 27.6382C1055.5 27.3201 1055.43 26.9772 1055.43 26.6312V26.5968ZM1055.43 30.3781H1060.59V46.1562H1055.43V30.3781ZM1079.29 38.2672C1079.29 43.4234 1077.01 46.3625 1073.09 46.3625C1072.09 46.4269 1071.09 46.1813 1070.23 45.6588C1069.37 45.1361 1068.69 44.3618 1068.28 43.4406H1068.18V51.2093H1063.03V30.3437H1068.18V33.1625H1068.28C1068.67 32.2259 1069.34 31.4315 1070.19 30.8872C1071.04 30.3429 1072.05 30.0751 1073.06 30.1203C1077.01 30.189 1079.36 33.1453 1079.36 38.3015L1079.29 38.2672ZM1074.14 38.2672C1074.14 35.7578 1072.99 34.1593 1071.18 34.1593C1069.38 34.1593 1068.23 35.775 1068.21 38.2672C1068.2 40.7593 1069.38 42.3578 1071.18 42.3578C1072.99 42.3578 1074.14 40.7937 1074.14 38.3015V38.2672ZM1088.14 30.0172C1092.42 30.0172 1095.01 32.0453 1095.13 35.2937H1090.44C1090.44 34.1765 1089.51 33.4718 1088.09 33.4718C1086.66 33.4718 1086.03 34.0218 1086.03 34.8296C1086.03 35.6375 1086.59 35.8953 1087.74 36.1359L1091.04 36.8062C1094.19 37.4765 1095.53 38.7484 1095.53 41.1375C1095.53 44.4031 1092.55 46.5 1088.17 46.5C1083.79 46.5 1080.92 44.4031 1080.7 41.189H1085.67C1085.82 42.3578 1086.75 43.0453 1088.26 43.0453C1089.77 43.0453 1090.46 42.5468 1090.46 41.7218C1090.46 40.8968 1089.98 40.725 1088.74 40.4671L1085.77 39.8312C1082.69 39.1953 1081.08 37.5625 1081.08 35.1562C1081.11 32.0625 1083.88 30.0515 1088.14 30.0515V30.0172ZM1112.72 46.1218H1107.76V43.1828H1107.65C1107.38 44.1695 1106.78 45.0332 1105.95 45.6304C1105.12 46.2275 1104.11 46.5223 1103.08 46.4656C1102.3 46.5101 1101.52 46.386 1100.79 46.1016C1100.06 45.8171 1099.39 45.3792 1098.85 44.817C1098.3 44.2549 1097.88 43.5817 1097.61 42.8431C1097.35 42.1046 1097.25 41.3178 1097.31 40.5359V30.3437H1102.46V39.35C1102.46 41.2234 1103.43 42.2203 1105.02 42.2203C1105.4 42.221 1105.77 42.1417 1106.11 41.9876C1106.45 41.8334 1106.76 41.6079 1107 41.3264C1107.25 41.0447 1107.44 40.7134 1107.54 40.3549C1107.65 39.9962 1107.69 39.6184 1107.64 39.2468V30.3437H1112.79L1112.72 46.1218ZM1115.21 30.3437H1120.19V33.3859H1120.3C1120.57 32.4122 1121.16 31.5566 1121.97 30.9534C1122.78 30.3501 1123.77 30.0328 1124.78 30.0515C1125.81 29.9692 1126.83 30.277 1127.64 30.914C1128.45 31.551 1128.99 32.4702 1129.16 33.489H1129.26C1129.57 32.4593 1130.22 31.5628 1131.1 30.9405C1131.97 30.3181 1133.03 30.0053 1134.11 30.0515C1134.81 30.028 1135.5 30.1522 1136.15 30.4162C1136.8 30.6801 1137.39 31.078 1137.88 31.5836C1138.36 32.0894 1138.74 32.6919 1138.98 33.3517C1139.21 34.0115 1139.31 34.7143 1139.26 35.414V46.1562H1134.11V36.789C1134.11 35.0703 1133.33 34.2797 1131.89 34.2797C1131.57 34.2769 1131.25 34.3432 1130.96 34.4742C1130.66 34.6052 1130.4 34.7977 1130.19 35.0388C1129.97 35.28 1129.81 35.5639 1129.72 35.8717C1129.62 36.1797 1129.6 36.5042 1129.64 36.8234V46.1562H1124.74V36.7203C1124.74 35.139 1123.97 34.2797 1122.56 34.2797C1122.24 34.2798 1121.91 34.3489 1121.62 34.4825C1121.32 34.6162 1121.06 34.8113 1120.84 35.0548C1120.62 35.2984 1120.46 35.585 1120.37 35.896C1120.27 36.2067 1120.24 36.5345 1120.28 36.8578V46.1562H1115.12L1115.21 30.3437Z" fill="#E5E5E5"/>
<path d="M979.921 26.2532C979.047 24.2531 977.89 22.3893 976.486 20.7188C974.41 18.1756 971.819 16.1012 968.884 14.632C965.949 13.1628 962.737 12.3323 959.458 12.1949C956.179 12.0576 952.908 12.6166 949.861 13.8352C946.813 15.0537 944.059 16.9043 941.777 19.2649C939.496 21.6256 937.741 24.4429 936.626 27.5314C935.512 30.6198 935.063 33.9095 935.311 37.1837C935.559 40.4581 936.496 43.6428 938.063 46.5282C939.629 49.4138 941.788 51.9347 944.398 53.925C946.073 55.2277 947.924 56.2866 949.895 57.0703C952.659 58.2037 955.617 58.7874 958.604 58.7891C964.77 58.7755 970.678 56.3163 975.035 51.9507C979.392 47.5851 981.841 41.6693 981.845 35.5C981.85 32.3178 981.195 29.1692 979.921 26.2532ZM958.587 16.9203C961.269 16.92 963.919 17.5067 966.351 18.6391C965.758 18.8955 965.135 19.0745 964.496 19.1719C962.394 19.4763 960.448 20.4525 958.946 21.9549C957.445 23.4572 956.469 25.4051 956.165 27.5078C956.031 28.6871 955.495 29.7842 954.647 30.614C953.799 31.4438 952.691 31.9553 951.51 32.0625C949.408 32.3669 947.462 33.3432 945.96 34.8455C944.459 36.3479 943.483 38.2958 943.179 40.3985C943.076 41.5198 942.598 42.5735 941.822 43.3891C940.483 40.5588 939.882 37.4355 940.074 34.3101C940.266 31.1848 941.244 28.1587 942.919 25.5136C944.594 22.8686 946.911 20.6904 949.653 19.1819C952.396 17.6734 955.475 16.8836 958.604 16.8859L958.587 16.9203ZM944.381 47.5313C944.587 47.3422 944.793 47.1703 945 46.9641C946.528 45.4817 947.509 43.5247 947.782 41.4125C947.893 40.2252 948.423 39.1163 949.277 38.2844C950.098 37.4288 951.204 36.903 952.386 36.8063C954.487 36.5019 956.434 35.5256 957.936 34.0233C959.437 32.5209 960.413 30.5731 960.717 28.4703C960.791 27.2285 961.324 26.0586 962.211 25.1875C963.053 24.3485 964.169 23.8419 965.355 23.7609C967.285 23.4952 969.086 22.6364 970.508 21.3032C972.127 22.6473 973.499 24.2644 974.562 26.0813C974.497 26.1695 974.422 26.2502 974.339 26.3219C973.519 27.1851 972.414 27.7223 971.23 27.8344C969.126 28.1335 967.176 29.108 965.674 30.6112C964.171 32.1146 963.197 34.0654 962.898 36.1703C962.777 37.3535 962.251 38.4585 961.409 39.298C960.567 40.1376 959.461 40.6599 958.278 40.7766C956.17 41.0786 954.216 42.0529 952.706 43.5546C951.196 45.0565 950.21 47.0055 949.895 49.1125C949.803 49.9525 949.514 50.7591 949.053 51.4672C947.291 50.4202 945.713 49.0905 944.381 47.5313ZM958.587 54.1657C956.844 54.1675 955.109 53.9245 953.434 53.4438C954.007 52.3747 954.38 51.2096 954.533 50.0063C954.653 48.8257 955.177 47.7228 956.016 46.8837C956.854 46.0446 957.957 45.5205 959.137 45.4C961.241 45.0991 963.192 44.1244 964.697 42.6217C966.202 41.1191 967.18 39.1692 967.485 37.0641C967.605 35.8835 968.129 34.7806 968.968 33.9415C969.806 33.1024 970.908 32.5783 972.088 32.4578C973.672 32.2518 975.182 31.6617 976.486 30.7391C977.21 33.4855 977.296 36.3613 976.737 39.146C976.177 41.9307 974.988 44.5505 973.26 46.8039C971.532 49.0572 969.311 50.8847 966.768 52.146C964.224 53.4072 961.426 54.0687 958.587 54.0797V54.1657Z" fill="#E5E5E5"/>
</svg>
